<?xml version="1.0" encoding="UTF-8" standalone="no"?><!DOCTYPE svg PUBLIC "-//W3C//DTD SVG 1.1//EN" "http://www.w3.org/Graphics/SVG/1.1/DTD/svg11.dtd"><!-- Generated by graphviz version 2.40.1 (20161225.0304)
 --><!-- Title: G Pages: 1 --><svg xmlns="http://www.w3.org/2000/svg" xmlns:xlink="http://www.w3.org/1999/xlink" width="256pt" height="548pt" viewBox="0.00 0.00 256.00 548.00">
<g id="graph0" class="graph" transform="scale(1 1) rotate(0) translate(4 544)">
<title>G</title>
<polygon fill="#ffffff" stroke="transparent" points="-4,4 -4,-544 252,-544 252,4 -4,4"/>
<!-- 4 -->
<g id="node1" class="node">
<title>4</title>
<ellipse fill="none" stroke="#000000" cx="83" cy="-522" rx="27" ry="18"/>
<text text-anchor="middle" x="83" y="-517.8" font-family="Times,serif" font-size="14.00" fill="#000000">4</text>
</g>
<!-- 5 -->
<g id="node2" class="node">
<title>5</title>
<ellipse fill="none" stroke="#000000" cx="83" cy="-450" rx="27" ry="18"/>
<text text-anchor="middle" x="83" y="-445.8" font-family="Times,serif" font-size="14.00" fill="#000000">5</text>
</g>
<!-- 4&#45;&gt;5 -->
<g id="edge1" class="edge">
<title>4-&gt;5</title>
<path fill="none" stroke="#b92a2a" d="M77.0843,-504.2022C76.2798,-496.1807 76.0571,-486.5231 76.4162,-477.5957"/>
<polygon fill="#b92a2a" stroke="#b92a2a" points="79.9097,-477.8099 77.105,-467.593 72.9262,-477.3289 79.9097,-477.8099"/>
</g>
<!-- 7 -->
<g id="node3" class="node">
<title>7</title>
<ellipse fill="none" stroke="#000000" cx="47" cy="-18" rx="27" ry="18"/>
<text text-anchor="middle" x="47" y="-13.8" font-family="Times,serif" font-size="14.00" fill="#000000">7</text>
</g>
<!-- 4&#45;&gt;7 -->
<g id="edge3" class="edge">
<title>4-&gt;7</title>
<path fill="none" stroke="#000000" d="M67.3883,-507.2332C43.3453,-482.8121 0,-431.3827 0,-378 0,-378 0,-378 0,-162 0,-119.1857 19.0087,-72.5881 32.8487,-44.335"/>
<polygon fill="#000000" stroke="#000000" points="36.1069,-45.6472 37.4888,-35.1429 29.8579,-42.4927 36.1069,-45.6472"/>
</g>
<!-- 5&#45;&gt;4 -->
<g id="edge2" class="edge">
<title>5-&gt;4</title>
<path fill="none" stroke="#000000" d="M88.895,-467.593C89.7094,-475.5865 89.942,-485.2363 89.5928,-494.1759"/>
<polygon fill="#000000" stroke="#000000" points="86.0976,-493.9891 88.9157,-504.2022 93.0817,-494.4608 86.0976,-493.9891"/>
</g>
<!-- 5&#45;&gt;7 -->
<g id="edge4" class="edge">
<title>5-&gt;7</title>
<path fill="none" stroke="#000000" d="M70.6252,-433.9158C56.8004,-407.6453 38,-353.6734 38,-306 38,-306 38,-306 38,-162 38,-121.6543 38,-74.9501 40.2547,-45.9378"/>
<polygon fill="#000000" stroke="#000000" points="43.7625,-46.0237 41.234,-35.735 36.7945,-45.3548 43.7625,-46.0237"/>
</g>
<!-- 1 -->
<g id="node4" class="node">
<title>1</title>
<ellipse fill="none" stroke="#000000" cx="111" cy="-378" rx="27" ry="18"/>
<text text-anchor="middle" x="111" y="-373.8" font-family="Times,serif" font-size="14.00" fill="#000000">1</text>
</g>
<!-- 5&#45;&gt;1 -->
<g id="edge6" class="edge">
<title>5-&gt;1</title>
<path fill="none" stroke="#b92a2a" d="M89.778,-432.5708C92.9872,-424.3187 96.8935,-414.2738 100.4758,-405.0623"/>
<polygon fill="#b92a2a" stroke="#b92a2a" points="103.8248,-406.1069 104.1874,-395.5182 97.3008,-403.5697 103.8248,-406.1069"/>
</g>
<!-- 7&#45;&gt;5 -->
<g id="edge5" class="edge">
<title>7-&gt;5</title>
<path fill="none" stroke="#000000" d="M52.766,-35.735C56,-62.9131 56,-116.5 56,-162 56,-306 56,-306 56,-306 56,-347.3116 70.1175,-393.3528 78.461,-421.9996"/>
<polygon fill="#000000" stroke="#000000" points="75.1267,-423.0702 81.2368,-431.7257 81.8579,-421.1491 75.1267,-423.0702"/>
</g>
<!-- 3 -->
<g id="node7" class="node">
<title>3</title>
<ellipse fill="none" stroke="#000000" cx="111" cy="-306" rx="27" ry="18"/>
<text text-anchor="middle" x="111" y="-301.8" font-family="Times,serif" font-size="14.00" fill="#000000">3</text>
</g>
<!-- 7&#45;&gt;3 -->
<g id="edge9" class="edge">
<title>7-&gt;3</title>
<path fill="none" stroke="#2ab942" d="M55.4955,-35.1367C60.3644,-45.5721 66.2367,-59.2989 70,-72 91.4863,-144.5168 103.2283,-233.2133 108.161,-277.6994"/>
<polygon fill="#2ab942" stroke="#2ab942" points="104.6945,-278.1995 109.2439,-287.7679 111.6544,-277.4509 104.6945,-278.1995"/>
</g>
<!-- 1&#45;&gt;3 -->
<g id="edge10" class="edge">
<title>1-&gt;3</title>
<path fill="none" stroke="#b92a2a" d="M111,-359.8314C111,-352.131 111,-342.9743 111,-334.4166"/>
<polygon fill="#b92a2a" stroke="#b92a2a" points="114.5001,-334.4132 111,-324.4133 107.5001,-334.4133 114.5001,-334.4132"/>
</g>
<!-- 0 -->
<g id="node5" class="node">
<title>8</title>
<ellipse fill="none" stroke="#000000" cx="166" cy="-162" rx="27" ry="18"/>
<text text-anchor="middle" x="166" y="-157.8" font-family="Times,serif" font-size="14.00" fill="#000000">8</text>
</g>
<!-- 0&#45;&gt;4 -->
<g id="edge7" class="edge">
<title>8-&gt;4</title>
<path fill="none" stroke="#b92a2a" d="M166,-180.1854C166,-207.5017 166,-260.75 166,-306 166,-378 166,-378 166,-378 166,-426.3781 130.401,-473.1519 105.8311,-499.6733"/>
<polygon fill="#b92a2a" stroke="#b92a2a" points="102.9868,-497.5839 98.6117,-507.2332 108.0493,-502.4184 102.9868,-497.5839"/>
</g>
<!-- 2 -->
<g id="node6" class="node">
<title>2</title>
<ellipse fill="none" stroke="#000000" cx="166" cy="-90" rx="27" ry="18"/>
<text text-anchor="middle" x="166" y="-85.8" font-family="Times,serif" font-size="14.00" fill="#000000">2</text>
</g>
<!-- 0&#45;&gt;2 -->
<g id="edge8" class="edge">
<title>8-&gt;2</title>
<path fill="none" stroke="#2ab942" d="M166,-143.8314C166,-136.131 166,-126.9743 166,-118.4166"/>
<polygon fill="#2ab942" stroke="#2ab942" points="169.5001,-118.4132 166,-108.4133 162.5001,-118.4133 169.5001,-118.4132"/>
</g>
<!-- 2&#45;&gt;7 -->
<g id="edge11" class="edge">
<title>2-&gt;7</title>
<path fill="none" stroke="#2ab942" d="M145.8133,-77.7862C126.666,-66.2013 97.6873,-48.6679 76.0563,-35.5803"/>
<polygon fill="#2ab942" stroke="#2ab942" points="77.6534,-32.4559 67.2858,-30.2737 74.0298,-38.445 77.6534,-32.4559"/>
</g>
<!-- 6 -->
<g id="node8" class="node">
<title>6</title>
<ellipse fill="none" stroke="#000000" cx="221" cy="-234" rx="27" ry="18"/>
<text text-anchor="middle" x="221" y="-229.8" font-family="Times,serif" font-size="14.00" fill="#000000">6</text>
</g>
<!-- 3&#45;&gt;6 -->
<g id="edge13" class="edge">
<title>3-&gt;6</title>
<path fill="none" stroke="#000000" d="M130.4126,-293.2936C147.742,-281.9507 173.3318,-265.201 192.8972,-252.3946"/>
<polygon fill="#000000" stroke="#000000" points="194.9613,-255.2267 201.4115,-246.8216 191.1276,-249.3698 194.9613,-255.2267"/>
</g>
<!-- 6&#45;&gt;4 -->
<g id="edge15" class="edge">
<title>6-&gt;4</title>
<path fill="none" stroke="#000000" d="M222.765,-252.0919C225.9075,-294.1899 228.1617,-400.2717 180,-468 164.8896,-489.2493 138.6618,-503.1201 117.286,-511.4767"/>
<polygon fill="#000000" stroke="#000000" points="116.0452,-508.2038 107.8634,-514.935 118.4571,-514.7752 116.0452,-508.2038"/>
</g>
<!-- 6&#45;&gt;8 -->
<g id="edge14" class="edge">
<title>6-&gt;8</title>
<path fill="none" stroke="#000000" d="M208.5196,-217.6621C201.4876,-208.4564 192.5653,-196.7764 184.7117,-186.4953"/>
<polygon fill="#000000" stroke="#000000" points="187.2828,-184.0953 178.431,-178.2733 181.72,-188.3446 187.2828,-184.0953"/>
</g>
<!-- 6&#45;&gt;2 -->
<g id="edge12" class="edge">
<title>6-&gt;2</title>
<path fill="none" stroke="#000000" d="M219.2095,-215.8083C216.9112,-197.1875 211.9655,-167.7008 202,-144 197.6764,-133.7173 191.313,-123.3119 185.134,-114.4164"/>
<polygon fill="#000000" stroke="#000000" points="187.7998,-112.1301 179.0989,-106.0847 182.1307,-116.2365 187.7998,-112.1301"/>
</g>
</g>
</svg>